<?xml version="1.0" encoding="UTF-8" standalone="no" ?>
<!DOCTYPE svg PUBLIC "-//W3C//DTD SVG 1.1//EN" "http://www.w3.org/Graphics/SVG/1.1/DTD/svg11.dtd">
<svg xmlns="http://www.w3.org/2000/svg" xmlns:xlink="http://www.w3.org/1999/xlink" version="1.1" width="500" height="500" viewBox="0 0 500 500" xml:space="preserve">
<!-- Created with SVG Stack Editor - https://svgstack.com -->
<defs>
</defs>
<rect x="0" y="0" width="100%" height="100%" fill="transparent"></rect>
<g transform="matrix(0.66 0 0 0.66 250 250)"  >
<g style=""   >
		<g transform="matrix(1 0 0 1 0 0)" id="path_0"  >
<path style="stroke: none; stroke-width: 1; stroke-dasharray: none; stroke-linecap: butt; stroke-dashoffset: 0; stroke-linejoin: miter; stroke-miterlimit: 4; fill: rgb(0,0,0); fill-rule: nonzero; opacity: 1;"  transform=" translate(-512.1, -511.34)" d="M 681.356 132.502 C 708.022 131.675 735.334 168.16400000000002 752.898 187.50400000000002 C 764.546 174.56000000000003 781.46 154.88700000000003 798.866 153.699 C 820.484 151.881 867.196 201.322 867.9259999999999 220.9 C 868.8059999999999 244.506 850.8459999999999 254.382 836.9639999999999 269.97 C 852.5799999999999 286.91400000000004 892.914 318.084 891.6479999999999 339.57800000000003 C 890.8499999999999 358.228 854.218 388.288 840.7399999999999 402.052 C 861.2239999999999 421.67400000000004 896.0139999999999 445.61800000000005 873.5799999999999 475.588 C 866.184 485.468 853.286 495.57800000000003 844.766 504.944 C 812.5519999999999 540.362 799.12 528.176 769.308 499.654 C 748.024 479.292 721.43 446.408 699.384 429.322 C 685.364 444.602 668.846 459.724 653.9 474.438 L 496.768 630.446 C 474.39399999999995 652.77 450.87399999999997 676.688 428.03 698.35 L 515.036 784.75 C 528.476 798.418 533.328 818.086 518.51 832.644 C 487.99399999999997 860.9300000000001 462.034 906.326 420.31399999999996 858.994 C 415.00199999999995 852.97 407.15799999999996 845.816 401.54599999999994 839.804 C 386.91399999999993 854.794 361.42599999999993 886.1379999999999 341.37799999999993 889.836 C 318.6239999999999 892.806 308.3999999999999 876.42 293.93799999999993 861.778 L 268.5899999999999 836.4060000000001 C 253.47199999999992 849.336 244.12599999999992 868.9380000000001 221.74999999999991 869.0360000000001 C 203.53599999999992 869.1160000000001 196.2129999999999 856.268 184.28199999999993 844.902 C 140.34599999999992 803.046 142.88799999999992 794.8860000000001 187.43299999999994 754.2840000000001 C 172.15299999999993 738.3100000000001 133.37599999999992 707.4800000000001 132.53599999999994 686.7740000000001 C 131.65899999999993 665.1240000000001 168.39499999999995 640.1500000000001 183.53399999999993 623.8200000000002 C 173.23799999999994 613.1500000000002 153.20899999999995 596.1520000000002 146.73999999999995 584.4320000000001 C 133.14999999999995 554.7180000000001 158.49799999999996 539.9360000000001 175.63199999999995 521.8440000000002 C 192.58599999999996 503.9440000000002 208.29999999999995 492.50000000000017 233.05599999999995 504.2860000000002 C 242.62799999999996 508.84400000000016 315.49999999999994 585.1120000000002 325.924 595.6560000000002 C 350.034 573.4780000000002 374.08799999999997 547.9820000000002 397.438 524.8460000000002 L 576.538 347.6760000000003 C 580.89 343.34000000000026 593.726 331.11200000000025 596.36 326.7260000000003 C 574.798 303.8980000000003 550.604 281.50800000000027 528.79 258.69600000000025 C 511.64799999999997 239.10000000000025 476.52199999999993 216.44000000000025 507.98199999999997 187.37900000000025 C 524.466 172.15200000000024 544.5899999999999 142.29100000000025 567.6759999999999 142.52600000000024 C 583.8979999999999 142.19200000000023 592.7979999999999 153.12200000000024 603.4879999999999 163.60800000000023 L 622.684 182.49200000000025 L 651.552 154.05100000000024 C 662.034 143.52400000000026 666.28 136.09900000000025 681.356 132.50200000000024 M 311.888 839.804 C 315.412 834.346 349.692 799.072 355.00199999999995 795.254 C 348.42199999999997 788.1080000000001 340.95199999999994 781.144 334.06999999999994 774.214 L 242.75999999999993 683.008 C 229.63199999999995 669.87 217.35799999999995 656.832 203.52199999999993 644.318 L 179.21799999999993 668.172 C 155.42299999999994 691.37 158.99499999999995 684.326 180.66799999999992 707.038 C 223.6419999999999 752.068 268.9079999999999 794.78 311.8879999999999 839.804 M 642.8439999999999 203.03599999999994 C 662.8019999999999 225.30599999999995 685.2099999999999 245.83399999999995 706.286 267.04999999999995 L 757.284 318.39799999999997 C 769.222 330.474 781.584 343.31399999999996 793.844 354.986 C 806.4680000000001 340.876 823.4000000000001 324.758 836.964 311.264 L 685.6940000000001 160.05100000000002 C 674.0380000000001 170.735 652.8120000000001 190.90500000000003 642.844 203.036" stroke-linecap="round" />
</g>
		<g transform="matrix(1 0 0 1 0.65 1.65)" id="path_1"  >
<path style="stroke: none; stroke-width: 1; stroke-dasharray: none; stroke-linecap: butt; stroke-dashoffset: 0; stroke-linejoin: miter; stroke-miterlimit: 4; fill: rgb(211,216,219); fill-rule: nonzero; opacity: 1;"  transform=" translate(-512.75, -512.99)" d="M 617.048 347.756 C 621.158 351.01199999999994 626.724 356.89399999999995 630.614 360.77 L 652.828 382.88599999999997 C 661.5319999999999 391.48999999999995 670.36 400.89399999999995 678.8919999999999 409.736 C 673.106 416.792 661.9279999999999 426.324 655.016 433.138 L 408.11 678.228 C 401.492 671.5379999999999 387.02000000000004 658.38 381.72200000000004 651.942 C 370.03600000000006 639.866 358.57200000000006 628.496 346.60800000000006 616.7 C 355.2320000000001 607.3620000000001 364.62000000000006 598.4860000000001 373.65600000000006 589.558 L 553.0360000000001 411.166 C 574.312 389.844 595.144 368.548 617.048 347.756" stroke-linecap="round" />
</g>
		<g transform="matrix(1 0 0 1 18.21 19.22)" id="path_2"  >
<path style="stroke: none; stroke-width: 1; stroke-dasharray: none; stroke-linecap: butt; stroke-dashoffset: 0; stroke-linejoin: miter; stroke-miterlimit: 4; fill: rgb(126,143,157); fill-rule: nonzero; opacity: 1;"  transform=" translate(-530.31, -530.56)" d="M 652.828 382.886 C 661.5319999999999 391.49 670.36 400.894 678.8919999999999 409.73600000000005 C 673.106 416.79200000000003 661.9279999999999 426.32400000000007 655.016 433.13800000000003 L 408.11 678.228 C 401.492 671.5379999999999 387.02000000000004 658.38 381.72200000000004 651.942 C 399.922 634.82 416.492 617.564 434.02400000000006 600.014 z" stroke-linecap="round" />
</g>
		<g transform="matrix(1 0 0 1 -175.47 178.33)" id="path_3"  >
<path style="stroke: none; stroke-width: 1; stroke-dasharray: none; stroke-linecap: butt; stroke-dashoffset: 0; stroke-linejoin: miter; stroke-miterlimit: 4; fill: rgb(211,216,219); fill-rule: nonzero; opacity: 1;"  transform=" translate(-336.62, -689.67)" d="M 211.996 528.528 C 221.592 528.214 228.392 538.78 234.63 545.058 L 452.932 763.48 C 469.03000000000003 779.44 484.584 794.342 500.404 810.76 C 489.19 822.578 472.024 840 459.43399999999997 850.584 C 450.34 854.074 420.48799999999994 818.612 413.09 811.304 L 224.782 624.47 C 216.726 616.36 170.068 576.0120000000001 172.97400000000002 567.3480000000001 C 175.18800000000002 560.748 205.37400000000002 531.5400000000001 211.996 528.528" stroke-linecap="round" />
</g>
		<g transform="matrix(1 0 0 1 177.38 -176.04)" id="path_4"  >
<path style="stroke: none; stroke-width: 1; stroke-dasharray: none; stroke-linecap: butt; stroke-dashoffset: 0; stroke-linejoin: miter; stroke-miterlimit: 4; fill: rgb(211,216,219); fill-rule: nonzero; opacity: 1;"  transform=" translate(-689.48, -335.3)" d="M 565.648 172.025 C 574.2040000000001 171.485 590.538 191.275 597.01 197.736 L 826.062 427.92 C 835.306 437.274 844.016 446.75 853.876 455.474 C 840.54 470.37 825.106 483.616 811.374 498.214 C 808.5360000000001 501.296 794.078 484.008 790.674 480.616 L 588.308 277.692 C 572.784 262.072 535.426 229.65800000000002 525.084 212.822 C 526.38 209.40800000000002 561.304 174.898 565.6479999999999 172.025" stroke-linecap="round" />
</g>
		<g transform="matrix(1 0 0 1 316.94 -164.26)" id="path_5"  >
<path style="stroke: none; stroke-width: 1; stroke-dasharray: none; stroke-linecap: butt; stroke-dashoffset: 0; stroke-linejoin: miter; stroke-miterlimit: 4; fill: rgb(126,143,157); fill-rule: nonzero; opacity: 1;"  transform=" translate(-829.04, -347.07)" d="M 836.964 311.264 C 844.8420000000001 318.242 856.854 330.612 864.23 338.354 C 849.652 353.662 834.152 366.42199999999997 820.1700000000001 382.88599999999997 C 811.768 372.41599999999994 802.844 364.556 793.844 354.986 C 806.4680000000001 340.876 823.4000000000001 324.758 836.964 311.264" stroke-linecap="round" />
</g>
		<g transform="matrix(1 0 0 1 293.78 -295.01)" id="path_6"  >
<path style="stroke: none; stroke-width: 1; stroke-dasharray: none; stroke-linecap: butt; stroke-dashoffset: 0; stroke-linejoin: miter; stroke-miterlimit: 4; fill: rgb(126,143,157); fill-rule: nonzero; opacity: 1;"  transform=" translate(-805.88, -216.33)" d="M 798.696 182.492 C 805.734 182.00699999999998 831.99 211.99599999999998 838.3240000000001 218.736 C 844.7180000000001 225.53799999999998 819.238 248.32799999999997 816.3180000000001 250.172 L 815.5040000000001 249.714 C 803.5480000000001 236.596 785.3380000000001 218.872 772.4140000000001 206.796 C 779.5640000000001 200.14 791.1020000000001 186.482 798.6960000000001 182.492" stroke-linecap="round" />
</g>
		<g transform="matrix(1 0 0 1 -165.29 318.19)" id="path_7"  >
<path style="stroke: none; stroke-width: 1; stroke-dasharray: none; stroke-linecap: butt; stroke-dashoffset: 0; stroke-linejoin: miter; stroke-miterlimit: 4; fill: rgb(126,143,157); fill-rule: nonzero; opacity: 1;"  transform=" translate(-346.8, -829.53)" d="M 355.002 795.254 C 361.976 802.166 374.462 815.38 381.722 820.928 C 367.55199999999996 831.296 348.99 851.226 336.402 863.804 C 330.7 857.77 318.092 843.76 311.888 839.804 C 315.412 834.346 349.692 799.072 355.00199999999995 795.254" stroke-linecap="round" />
</g>
		<g transform="matrix(1 0 0 1 -297 295.79)" id="path_8"  >
<path style="stroke: none; stroke-width: 1; stroke-dasharray: none; stroke-linecap: butt; stroke-dashoffset: 0; stroke-linejoin: miter; stroke-miterlimit: 4; fill: rgb(126,143,157); fill-rule: nonzero; opacity: 1;"  transform=" translate(-215.1, -807.13)" d="M 207.006 774.426 C 210.28 776.9140000000001 219.976 786.7040000000001 222.974 789.7520000000001 L 248.736 816.1160000000001 C 244.10199999999998 820.9120000000001 228.64999999999998 836.4080000000001 223.968 839.8040000000001 C 216.76999999999998 840.868 186.11499999999998 807.32 181.45999999999998 800.9620000000001 C 186.11499999999998 794.8380000000001 200.902 780.6220000000001 207.00599999999997 774.4260000000002" stroke-linecap="round" />
</g>
</g>
</g>
<g transform="matrix(0.66 0 0 0.66 250 250)"  >
<g style=""   >
		<g transform="matrix(1 0 0 1 0 0)" id="path_0"  >
<path style="stroke: none; stroke-width: 1; stroke-dasharray: none; stroke-linecap: butt; stroke-dashoffset: 0; stroke-linejoin: miter; stroke-miterlimit: 4; fill: rgb(0,0,0); fill-rule: nonzero; opacity: 1;"  transform=" translate(-512.1, -511.34)" d="M 681.356 132.502 C 708.022 131.675 735.334 168.16400000000002 752.898 187.50400000000002 C 764.546 174.56000000000003 781.46 154.88700000000003 798.866 153.699 C 820.484 151.881 867.196 201.322 867.9259999999999 220.9 C 868.8059999999999 244.506 850.8459999999999 254.382 836.9639999999999 269.97 C 852.5799999999999 286.91400000000004 892.914 318.084 891.6479999999999 339.57800000000003 C 890.8499999999999 358.228 854.218 388.288 840.7399999999999 402.052 C 861.2239999999999 421.67400000000004 896.0139999999999 445.61800000000005 873.5799999999999 475.588 C 866.184 485.468 853.286 495.57800000000003 844.766 504.944 C 812.5519999999999 540.362 799.12 528.176 769.308 499.654 C 748.024 479.292 721.43 446.408 699.384 429.322 C 685.364 444.602 668.846 459.724 653.9 474.438 L 496.768 630.446 C 474.39399999999995 652.77 450.87399999999997 676.688 428.03 698.35 L 515.036 784.75 C 528.476 798.418 533.328 818.086 518.51 832.644 C 487.99399999999997 860.9300000000001 462.034 906.326 420.31399999999996 858.994 C 415.00199999999995 852.97 407.15799999999996 845.816 401.54599999999994 839.804 C 386.91399999999993 854.794 361.42599999999993 886.1379999999999 341.37799999999993 889.836 C 318.6239999999999 892.806 308.3999999999999 876.42 293.93799999999993 861.778 L 268.5899999999999 836.4060000000001 C 253.47199999999992 849.336 244.12599999999992 868.9380000000001 221.74999999999991 869.0360000000001 C 203.53599999999992 869.1160000000001 196.2129999999999 856.268 184.28199999999993 844.902 C 140.34599999999992 803.046 142.88799999999992 794.8860000000001 187.43299999999994 754.2840000000001 C 172.15299999999993 738.3100000000001 133.37599999999992 707.4800000000001 132.53599999999994 686.7740000000001 C 131.65899999999993 665.1240000000001 168.39499999999995 640.1500000000001 183.53399999999993 623.8200000000002 C 173.23799999999994 613.1500000000002 153.20899999999995 596.1520000000002 146.73999999999995 584.4320000000001 C 133.14999999999995 554.7180000000001 158.49799999999996 539.9360000000001 175.63199999999995 521.8440000000002 C 192.58599999999996 503.9440000000002 208.29999999999995 492.50000000000017 233.05599999999995 504.2860000000002 C 242.62799999999996 508.84400000000016 315.49999999999994 585.1120000000002 325.924 595.6560000000002 C 350.034 573.4780000000002 374.08799999999997 547.9820000000002 397.438 524.8460000000002 L 576.538 347.6760000000003 C 580.89 343.34000000000026 593.726 331.11200000000025 596.36 326.7260000000003 C 574.798 303.8980000000003 550.604 281.50800000000027 528.79 258.69600000000025 C 511.64799999999997 239.10000000000025 476.52199999999993 216.44000000000025 507.98199999999997 187.37900000000025 C 524.466 172.15200000000024 544.5899999999999 142.29100000000025 567.6759999999999 142.52600000000024 C 583.8979999999999 142.19200000000023 592.7979999999999 153.12200000000024 603.4879999999999 163.60800000000023 L 622.684 182.49200000000025 L 651.552 154.05100000000024 C 662.034 143.52400000000026 666.28 136.09900000000025 681.356 132.50200000000024 M 311.888 839.804 C 315.412 834.346 349.692 799.072 355.00199999999995 795.254 C 348.42199999999997 788.1080000000001 340.95199999999994 781.144 334.06999999999994 774.214 L 242.75999999999993 683.008 C 229.63199999999995 669.87 217.35799999999995 656.832 203.52199999999993 644.318 L 179.21799999999993 668.172 C 155.42299999999994 691.37 158.99499999999995 684.326 180.66799999999992 707.038 C 223.6419999999999 752.068 268.9079999999999 794.78 311.8879999999999 839.804 M 642.8439999999999 203.03599999999994 C 662.8019999999999 225.30599999999995 685.2099999999999 245.83399999999995 706.286 267.04999999999995 L 757.284 318.39799999999997 C 769.222 330.474 781.584 343.31399999999996 793.844 354.986 C 806.4680000000001 340.876 823.4000000000001 324.758 836.964 311.264 L 685.6940000000001 160.05100000000002 C 674.0380000000001 170.735 652.8120000000001 190.90500000000003 642.844 203.036" stroke-linecap="round" />
</g>
		<g transform="matrix(1 0 0 1 0.65 1.65)" id="path_1"  >
<path style="stroke: none; stroke-width: 1; stroke-dasharray: none; stroke-linecap: butt; stroke-dashoffset: 0; stroke-linejoin: miter; stroke-miterlimit: 4; fill: rgb(211,216,219); fill-rule: nonzero; opacity: 1;"  transform=" translate(-512.75, -512.99)" d="M 617.048 347.756 C 621.158 351.01199999999994 626.724 356.89399999999995 630.614 360.77 L 652.828 382.88599999999997 C 661.5319999999999 391.48999999999995 670.36 400.89399999999995 678.8919999999999 409.736 C 673.106 416.792 661.9279999999999 426.324 655.016 433.138 L 408.11 678.228 C 401.492 671.5379999999999 387.02000000000004 658.38 381.72200000000004 651.942 C 370.03600000000006 639.866 358.57200000000006 628.496 346.60800000000006 616.7 C 355.2320000000001 607.3620000000001 364.62000000000006 598.4860000000001 373.65600000000006 589.558 L 553.0360000000001 411.166 C 574.312 389.844 595.144 368.548 617.048 347.756" stroke-linecap="round" />
</g>
		<g transform="matrix(1 0 0 1 18.21 19.22)" id="path_2"  >
<path style="stroke: none; stroke-width: 1; stroke-dasharray: none; stroke-linecap: butt; stroke-dashoffset: 0; stroke-linejoin: miter; stroke-miterlimit: 4; fill: rgb(126,143,157); fill-rule: nonzero; opacity: 1;"  transform=" translate(-530.31, -530.56)" d="M 652.828 382.886 C 661.5319999999999 391.49 670.36 400.894 678.8919999999999 409.73600000000005 C 673.106 416.79200000000003 661.9279999999999 426.32400000000007 655.016 433.13800000000003 L 408.11 678.228 C 401.492 671.5379999999999 387.02000000000004 658.38 381.72200000000004 651.942 C 399.922 634.82 416.492 617.564 434.02400000000006 600.014 z" stroke-linecap="round" />
</g>
		<g transform="matrix(1 0 0 1 -175.47 178.33)" id="path_3"  >
<path style="stroke: none; stroke-width: 1; stroke-dasharray: none; stroke-linecap: butt; stroke-dashoffset: 0; stroke-linejoin: miter; stroke-miterlimit: 4; fill: rgb(211,216,219); fill-rule: nonzero; opacity: 1;"  transform=" translate(-336.62, -689.67)" d="M 211.996 528.528 C 221.592 528.214 228.392 538.78 234.63 545.058 L 452.932 763.48 C 469.03000000000003 779.44 484.584 794.342 500.404 810.76 C 489.19 822.578 472.024 840 459.43399999999997 850.584 C 450.34 854.074 420.48799999999994 818.612 413.09 811.304 L 224.782 624.47 C 216.726 616.36 170.068 576.0120000000001 172.97400000000002 567.3480000000001 C 175.18800000000002 560.748 205.37400000000002 531.5400000000001 211.996 528.528" stroke-linecap="round" />
</g>
		<g transform="matrix(1 0 0 1 177.38 -176.04)" id="path_4"  >
<path style="stroke: none; stroke-width: 1; stroke-dasharray: none; stroke-linecap: butt; stroke-dashoffset: 0; stroke-linejoin: miter; stroke-miterlimit: 4; fill: rgb(211,216,219); fill-rule: nonzero; opacity: 1;"  transform=" translate(-689.48, -335.3)" d="M 565.648 172.025 C 574.2040000000001 171.485 590.538 191.275 597.01 197.736 L 826.062 427.92 C 835.306 437.274 844.016 446.75 853.876 455.474 C 840.54 470.37 825.106 483.616 811.374 498.214 C 808.5360000000001 501.296 794.078 484.008 790.674 480.616 L 588.308 277.692 C 572.784 262.072 535.426 229.65800000000002 525.084 212.822 C 526.38 209.40800000000002 561.304 174.898 565.6479999999999 172.025" stroke-linecap="round" />
</g>
		<g transform="matrix(1 0 0 1 316.94 -164.26)" id="path_5"  >
<path style="stroke: none; stroke-width: 1; stroke-dasharray: none; stroke-linecap: butt; stroke-dashoffset: 0; stroke-linejoin: miter; stroke-miterlimit: 4; fill: rgb(126,143,157); fill-rule: nonzero; opacity: 1;"  transform=" translate(-829.04, -347.07)" d="M 836.964 311.264 C 844.8420000000001 318.242 856.854 330.612 864.23 338.354 C 849.652 353.662 834.152 366.42199999999997 820.1700000000001 382.88599999999997 C 811.768 372.41599999999994 802.844 364.556 793.844 354.986 C 806.4680000000001 340.876 823.4000000000001 324.758 836.964 311.264" stroke-linecap="round" />
</g>
		<g transform="matrix(1 0 0 1 293.78 -295.01)" id="path_6"  >
<path style="stroke: none; stroke-width: 1; stroke-dasharray: none; stroke-linecap: butt; stroke-dashoffset: 0; stroke-linejoin: miter; stroke-miterlimit: 4; fill: rgb(126,143,157); fill-rule: nonzero; opacity: 1;"  transform=" translate(-805.88, -216.33)" d="M 798.696 182.492 C 805.734 182.00699999999998 831.99 211.99599999999998 838.3240000000001 218.736 C 844.7180000000001 225.53799999999998 819.238 248.32799999999997 816.3180000000001 250.172 L 815.5040000000001 249.714 C 803.5480000000001 236.596 785.3380000000001 218.872 772.4140000000001 206.796 C 779.5640000000001 200.14 791.1020000000001 186.482 798.6960000000001 182.492" stroke-linecap="round" />
</g>
		<g transform="matrix(1 0 0 1 -165.29 318.19)" id="path_7"  >
<path style="stroke: none; stroke-width: 1; stroke-dasharray: none; stroke-linecap: butt; stroke-dashoffset: 0; stroke-linejoin: miter; stroke-miterlimit: 4; fill: rgb(126,143,157); fill-rule: nonzero; opacity: 1;"  transform=" translate(-346.8, -829.53)" d="M 355.002 795.254 C 361.976 802.166 374.462 815.38 381.722 820.928 C 367.55199999999996 831.296 348.99 851.226 336.402 863.804 C 330.7 857.77 318.092 843.76 311.888 839.804 C 315.412 834.346 349.692 799.072 355.00199999999995 795.254" stroke-linecap="round" />
</g>
		<g transform="matrix(1 0 0 1 -297 295.79)" id="path_8"  >
<path style="stroke: none; stroke-width: 1; stroke-dasharray: none; stroke-linecap: butt; stroke-dashoffset: 0; stroke-linejoin: miter; stroke-miterlimit: 4; fill: rgb(126,143,157); fill-rule: nonzero; opacity: 1;"  transform=" translate(-215.1, -807.13)" d="M 207.006 774.426 C 210.28 776.9140000000001 219.976 786.7040000000001 222.974 789.7520000000001 L 248.736 816.1160000000001 C 244.10199999999998 820.9120000000001 228.64999999999998 836.4080000000001 223.968 839.8040000000001 C 216.76999999999998 840.868 186.11499999999998 807.32 181.45999999999998 800.9620000000001 C 186.11499999999998 794.8380000000001 200.902 780.6220000000001 207.00599999999997 774.4260000000002" stroke-linecap="round" />
</g>
</g>
</g>
</svg>